<svg id="icons" xmlns="http://www.w3.org/2000/svg" viewBox="0 0 32 32"><defs><style>.cls-1{fill:#909090;}</style></defs><title>account</title><g id="account"><circle class="cls-1" cx="10.77" cy="12.41" r="2.3"/><circle class="cls-1" cx="21.17" cy="12.41" r="2.3"/><path class="cls-1" d="M189.79,72.51a6.37,6.37,0,0,1-5.6-3.51h-1.66c1.1,2,3.94,5,7.27,5s6.17-3,7.27-5H195.4A6.36,6.36,0,0,1,189.79,72.51Z" transform="translate(-173.65 -49.53)"/><path class="cls-1" d="M189.65,49.53a16,16,0,1,0,16,16A16,16,0,0,0,189.65,49.53Zm0,28.87a12.85,12.85,0,1,1,12.85-12.85A12.85,12.85,0,0,1,189.64,78.39Z" transform="translate(-173.65 -49.53)"/></g></svg>