<svg id="icons" xmlns="http://www.w3.org/2000/svg" viewBox="0 0 24.35 32"><defs><style>.cls-1{fill:#909090;}</style></defs><title>book</title><path id="book" class="cls-1" d="M200.1,49.53H181.47a1,1,0,0,0-1.07.38l-2.57,3a1.38,1.38,0,0,0-.1.19,1.18,1.18,0,0,0-.25.8V80.31a1.13,1.13,0,0,0,1.13,1.21h18.63a2.5,2.5,0,0,0,1.17-.66l2.7-3.35a2.88,2.88,0,0,0,.28-0.25,1.65,1.65,0,0,0,.43-0.65V50.22C201.83,49.54,200.78,49.53,200.1,49.53Zm-6.62,9.9a1.23,1.23,0,0,1-1.23,1.23h-9.37a1.23,1.23,0,0,1-1.23-1.23V57.71a1.23,1.23,0,0,1,1.23-1.23h9.37a1.23,1.23,0,0,1,1.23,1.23v1.72Zm6.26,15.29a1,1,0,0,1-.08.56,1,1,0,0,1-.05.22l-2,2.49V54.42a1.38,1.38,0,0,0-1.2-1.41H180.24l1.49-1.71a0.94,0.94,0,0,1,.94-0.38h16.17a0.79,0.79,0,0,1,.9.88V74.72Z" transform="translate(-177.48 -49.53)"/></svg>