<svg id="icons" xmlns="http://www.w3.org/2000/svg" viewBox="0 0 32 32"><defs><style>.cls-1{fill:none;}.cls-2{fill:#909090;}</style></defs><title>close</title><path class="cls-1" d="M186.63,57.49c0.52-.15.66-1.06,1.32-1.06s0.73,0.83,1.25,1.18a10.12,10.12,0,0,1,.35-1,3.78,3.78,0,0,1-1.47-1.07A5.65,5.65,0,0,1,186.35,57a0.47,0.47,0,0,1,.13.27Z" transform="translate(-173.65 -49.53)"/><path id="close" class="cls-2" d="M189.65,49.53a16,16,0,1,0,16,16A16,16,0,0,0,189.65,49.53ZM192,73.21l-1.47-3c-0.4-.77-0.75-1.8-1.12-2.42h-0.05c-0.35.63-.72,1.65-1.09,2.42l-1.39,3h-4.21l4.51-7.59-4.4-7.41h4.37l1.41,2.74c0.43,0.83.77,1.51,1.15,2.39h0.05c0.37-.87.72-1.64,1.09-2.42l1.33-2.71h4.19L192,65.46l4.48,7.75H192Z" transform="translate(-173.65 -49.53)"/></svg>