<svg id="icons" xmlns="http://www.w3.org/2000/svg" viewBox="0 0 32 22.26"><defs><style>.cls-1{fill:#909090;}</style></defs><title>credit_card</title><path id="credit_card" class="cls-1" d="M202.87,76.66H176.43a2.78,2.78,0,0,1-2.78-2.78V57.18a2.78,2.78,0,0,1,2.78-2.78h26.43a2.78,2.78,0,0,1,2.78,2.78v16.7A2.78,2.78,0,0,1,202.87,76.66ZM175,63.44h29.22V60.66H175v2.78Zm29.22-6.26a1.39,1.39,0,0,0-1.39-1.39H176.43A1.39,1.39,0,0,0,175,57.18v2.09h29.22V57.18Zm0,7.65H175v9a1.39,1.39,0,0,0,1.39,1.39h26.43a1.39,1.39,0,0,0,1.39-1.39v-9ZM191,69h-2.78a0.7,0.7,0,1,1,0-1.39H191A0.7,0.7,0,0,1,191,69Zm-6.26,0h-6.26a0.7,0.7,0,1,1,0-1.39h6.26A0.7,0.7,0,1,1,184.78,69Zm-6.26,2.09h4.17a0.7,0.7,0,0,1,0,1.39h-4.17A0.7,0.7,0,1,1,178.52,71.09Z" transform="translate(-173.65 -54.39)"/></svg>