<svg id="icons" xmlns="http://www.w3.org/2000/svg" viewBox="0 0 30.39 32"><defs><style>.cls-1{fill:#909090;}</style></defs><title>download</title><g id="download"><polygon class="cls-1" points="14.64 26.89 19.23 18.52 23.82 10.17 17.76 10.17 17.77 0.01 11.42 0 11.41 10.16 5.49 10.15 10.06 18.52 14.64 26.89"/><path class="cls-1" d="M203.11,68.65h-2.8c-0.62,0-1,0-1,.5v8.77H179.23V69.15c0-.47-0.78-0.5-1.4-0.5H175c-0.62,0-1,0-1,.5V80.36a1.12,1.12,0,0,0,1,1.16h28.08a1.55,1.55,0,0,0,1.36-1.16V69.15C204.47,68.68,203.73,68.65,203.11,68.65Z" transform="translate(-174.08 -49.53)"/></g></svg>