<svg id="icons" xmlns="http://www.w3.org/2000/svg" viewBox="0 0 32 31.98"><defs><style>.cls-1{fill:#909090;}</style></defs><title>facebook_footer</title><path class="cls-1" d="M189.65,81.51a16,16,0,1,1,16-16A16,16,0,0,1,189.65,81.51Zm0-31.09a15.1,15.1,0,1,0,15.11,15.1A15.12,15.12,0,0,0,189.65,50.42Z" transform="translate(-173.65 -49.54)"/><path class="cls-1" d="M190.63,63.35V62.26a2.42,2.42,0,0,1,0-.38,0.75,0.75,0,0,1,.1-0.26,0.42,0.42,0,0,1,.26-0.18,1.87,1.87,0,0,1,.48,0h1.09V59.21h-1.74a2.83,2.83,0,0,0-2.17.72A3,3,0,0,0,188,62v1.31h-1.3v2.18H188v6.32h2.62V65.53h1.74l0.23-2.18h-2Zm0,0" transform="translate(-173.65 -49.54)"/></svg>