<svg id="icons" xmlns="http://www.w3.org/2000/svg" viewBox="0 0 32 32"><defs><style>.cls-1{fill:#949494;}</style></defs><title>feed</title><g id="feed"><path class="cls-1" d="M178,72.8a4.35,4.35,0,1,0,3.09,1.27A4.21,4.21,0,0,0,178,72.8h0Zm0,0" transform="translate(-173.65 -49.53)"/><path class="cls-1" d="M188.06,67.12A20.07,20.07,0,0,0,182.17,63a20.39,20.39,0,0,0-7-1.83h-0.11a1.47,1.47,0,0,0-1.45,1.45v3.07a1.4,1.4,0,0,0,.37,1,1.38,1.38,0,0,0,.94.46,14.54,14.54,0,0,1,13.09,13.09,1.38,1.38,0,0,0,.45.94,1.4,1.4,0,0,0,1,.38h3.07a1.34,1.34,0,0,0,1.07-.48A1.38,1.38,0,0,0,194,80a20.38,20.38,0,0,0-1.83-7,20.1,20.1,0,0,0-4.12-5.89h0Zm0,0" transform="translate(-173.65 -49.53)"/><path class="cls-1" d="M202.92,68.6a32.18,32.18,0,0,0-27.75-19.08h-0.07a1.36,1.36,0,0,0-1,.41,1.35,1.35,0,0,0-.46,1v3.25a1.39,1.39,0,0,0,.4,1,1.36,1.36,0,0,0,1,.44A25.74,25.74,0,0,1,184.3,58a25.59,25.59,0,0,1,12.9,12.9,25.39,25.39,0,0,1,2.3,9.29,1.36,1.36,0,0,0,.44,1,1.42,1.42,0,0,0,1,.4h3.25a1.34,1.34,0,0,0,1-.46,1.32,1.32,0,0,0,.41-1.07,31.52,31.52,0,0,0-2.73-11.4h0Zm0,0" transform="translate(-173.65 -49.53)"/></g></svg>