<svg id="icons" xmlns="http://www.w3.org/2000/svg" viewBox="0 0 32 32"><defs><style>.cls-1{fill:#909090;}</style></defs><title>money</title><g id="money"><path class="cls-1" d="M182,54.16h0c0.3,0.3,2.15,3.41,2.77,4.46l0.11,0.18a3.72,3.72,0,0,0,2.43,1,8.56,8.56,0,0,0,1.41.13H189l0.57,0a4.73,4.73,0,0,0,2.67-1,0.88,0.88,0,0,0,.28-0.75c-0.16-2.08,1.92-4.8,2.24-5.12a1.29,1.29,0,0,0-1-2.08,2,2,0,0,0-1,.16,3,3,0,0,1-1.28.32,0.88,0.88,0,0,1-.8-0.48,2.82,2.82,0,0,0-2.4-1.44A2.52,2.52,0,0,0,186,51c-0.64,1.12-1.6,1.12-3,1.12A1.16,1.16,0,0,0,181.87,54Zm6.4-1a4.54,4.54,0,0,0,1.76,1.28,12.14,12.14,0,0,0-.42,1.25c-0.63-.42-0.87-1.41-1.5-1.41-0.79,0-1,1.09-1.58,1.27-0.06-.11-0.13-0.22-0.18-0.31a0.56,0.56,0,0,0-.16-0.32A6.77,6.77,0,0,0,188.37,53.21Z" transform="translate(-173.65 -49.53)"/><path class="cls-1" d="M192.21,60.41a9.33,9.33,0,0,1-3.2.8h-0.32a9.2,9.2,0,0,1-3-.48c-6.88,2.08-12,9.12-12,14.08,0,5.92,7.2,6.72,16,6.72s16-.8,16-6.72C205.65,69.53,199.89,62,192.21,60.41Z" transform="translate(-173.65 -49.53)"/></g></svg>