<svg id="icons" xmlns="http://www.w3.org/2000/svg" viewBox="0 0 25.04 32"><defs><style>.cls-1{fill:#909090;}</style></defs><title>note_detail</title><g id="note_detail"><polygon class="cls-1" points="11.38 12.47 10.99 13.92 12.44 13.53 11.38 12.47"/><path class="cls-1" d="M189.41,58.7l-0.79,2.88L190,62.94l2.88-.79S190.2,60.56,189.41,58.7Z" transform="translate(-177.13 -49.53)"/><path class="cls-1" d="M180.1,64.33h7.62a0.52,0.52,0,0,0,0-1H180.1A0.52,0.52,0,0,0,180.1,64.33Z" transform="translate(-177.13 -49.53)"/><path class="cls-1" d="M179.71,67.59a0.72,0.72,0,0,0,.83.38h16.13a0.5,0.5,0,1,0,0-.75H180.54A0.72,0.72,0,0,0,179.71,67.59Z" transform="translate(-177.13 -49.53)"/><path class="cls-1" d="M202,52.63l-3-3a0.47,0.47,0,0,0-.66,0L196.88,51a0.4,0.4,0,0,1-.12.1H177.92a1.09,1.09,0,0,0-.79,1.12V81c0,0.46.33,0.56,0.79,0.56h21.49c0.46,0,.95-0.1.95-0.56v-26a1,1,0,0,0,.22-0.13l1.48-1.51A0.46,0.46,0,0,0,202,52.63Zm-3.3,1.11v0.78l-6.1,6.11a0.45,0.45,0,0,0,0,.63l0.25,0.25a0.44,0.44,0,0,0,.62,0l5.24-5.24v23c0,0.46-.39.55-0.85,0.55H179.32c-0.46,0-.81-0.09-0.81-0.55V53.74a1.06,1.06,0,0,1,.81-1.09h15.9L190,57.93a0.52,0.52,0,0,0,0,.69l0.25,0.28a0.46,0.46,0,0,0,.63-0.11l6-6.14h0.86a1.08,1.08,0,0,0-.07.17l-6.41,6.47a0.48,0.48,0,0,0,0,.66l0.25,0.27a0.45,0.45,0,0,0,.63,0l6.41-6.41a0.46,0.46,0,0,0,.09-0.13l0,0S198.73,53.72,198.73,53.74Z" transform="translate(-177.13 -49.53)"/></g></svg>