<svg id="icons" xmlns="http://www.w3.org/2000/svg" viewBox="0 0 29.36 32"><defs><style>.cls-1{fill:#909090;}</style></defs><title>pdf</title><path class="cls-1" d="M193.47,66.41a1,1,0,0,0-.38,0v1.31a0.84,0.84,0,0,0,.3,0,0.74,0.74,0,0,0,.86-0.72A0.66,0.66,0,0,0,193.47,66.41Z" transform="translate(-174.97 -49.53)"/><path class="cls-1" d="M197.3,66.42a2.52,2.52,0,0,0-.46,0v2.9a2.18,2.18,0,0,0,.36,0,1.37,1.37,0,0,0,1.5-1.55A1.27,1.27,0,0,0,197.3,66.42Z" transform="translate(-174.97 -49.53)"/><path class="cls-1" d="M203.45,63.91h-0.62V55.29h0a0.84,0.84,0,0,0-.36-0.58l-4-4.91h0a1.48,1.48,0,0,0-.5-0.28v0H177.08A2,2,0,0,0,175,51.49V79.55a2.07,2.07,0,0,0,2.11,2h23.6a2.11,2.11,0,0,0,2.15-2V72h0.62a1,1,0,0,0,.88-1.07v-6A0.92,0.92,0,0,0,203.45,63.91Zm-3.74,12.6a2.18,2.18,0,0,1-2.13,2.14H180a2.21,2.21,0,0,1-2.16-2.14V54.3A2.21,2.21,0,0,1,180,52.17h14.21a1.05,1.05,0,0,1,1,1l-0.07,1.78c0,1.14-.34,2.47,3.83,2.47h0.09a0.67,0.67,0,0,1,.58.51l0,0.09v5.9H192A1.27,1.27,0,0,0,190.71,65v5.84A1.31,1.31,0,0,0,192,72h7.72v4.48ZM195.21,67a1.42,1.42,0,0,1-.41,1.05,2,2,0,0,1-1.41.47,1.34,1.34,0,0,1-.31,0v1.62h-1V65.74a7.29,7.29,0,0,1,1.32-.09,2.08,2.08,0,0,1,1.34.36A1.29,1.29,0,0,1,195.21,67ZM199,69.59a3.2,3.2,0,0,1-2.05.57,8.8,8.8,0,0,1-1.14-.07V65.74a9.11,9.11,0,0,1,1.36-.09,2.86,2.86,0,0,1,1.82.47,2,2,0,0,1,.75,1.67A2.25,2.25,0,0,1,199,69.59Zm4.17-3.06h-1.75v1h1.62v0.87h-1.62v1.75h-1v-4.5h2.75v0.87Z" transform="translate(-174.97 -49.53)"/></svg>