<svg id="icons" xmlns="http://www.w3.org/2000/svg" viewBox="0 0 32 25.99"><defs><style>.cls-1{fill:#949494;}</style></defs><title>twiiter</title><g id="twitter"><path class="cls-1" d="M205.65,55.62a13.12,13.12,0,0,1-3.78,1A6.37,6.37,0,0,0,204.76,53a12.88,12.88,0,0,1-4.16,1.58,6.56,6.56,0,0,0-11.35,4.49,7.28,7.28,0,0,0,.16,1.5,18.28,18.28,0,0,1-7.54-2,18.59,18.59,0,0,1-6-4.84,6.57,6.57,0,0,0-.1,6.44,6.55,6.55,0,0,0,2.13,2.33,6.49,6.49,0,0,1-3-.83v0.08a6.34,6.34,0,0,0,1.49,4.17,6.45,6.45,0,0,0,3.77,2.26,6.76,6.76,0,0,1-1.73.22,8.41,8.41,0,0,1-1.24-.1,6.57,6.57,0,0,0,6.13,4.55,12.84,12.84,0,0,1-8.14,2.8,13.87,13.87,0,0,1-1.58-.08,18.21,18.21,0,0,0,10.07,2.94,19.18,19.18,0,0,0,6.56-1.11,16.66,16.66,0,0,0,5.24-3,19.85,19.85,0,0,0,3.75-4.27,19,19,0,0,0,2.34-5,18.63,18.63,0,0,0,.77-5.27c0-.38,0-0.66,0-0.85a13.74,13.74,0,0,0,3.29-3.39h0Zm0,0" transform="translate(-173.65 -52.53)"/></g></svg>