<svg id="icons" xmlns="http://www.w3.org/2000/svg" viewBox="0 0 28.03 32"><defs><style>.cls-1{fill:#949494;}</style></defs><title>user</title><g id="user"><path class="cls-1" d="M189.65,65.53a7.2,7.2,0,0,0,5.4-2.34,8.26,8.26,0,0,0,0-11.31,7.4,7.4,0,0,0-10.81,0,8.26,8.26,0,0,0,0,11.31,7.2,7.2,0,0,0,5.41,2.34h0Zm0,0" transform="translate(-175.64 -49.53)"/><path class="cls-1" d="M203.6,74a22.1,22.1,0,0,0-.28-2.27,18.11,18.11,0,0,0-.53-2.26,10.92,10.92,0,0,0-.86-2,7.3,7.3,0,0,0-1.23-1.69,5.18,5.18,0,0,0-1.7-1.11,5.76,5.76,0,0,0-2.22-.42,2.39,2.39,0,0,0-.84.45l-1.48,1a9.2,9.2,0,0,1-2.15,1,8.1,8.1,0,0,1-5.32,0,9.14,9.14,0,0,1-2.15-1l-1.48-1a2.39,2.39,0,0,0-.84-0.45,5.75,5.75,0,0,0-2.22.42,5.16,5.16,0,0,0-1.7,1.11,7.29,7.29,0,0,0-1.23,1.69,10.9,10.9,0,0,0-.86,2A18.39,18.39,0,0,0,176,71.7a22.1,22.1,0,0,0-.28,2.27q-0.07,1.05-.07,2.16a5.33,5.33,0,0,0,1.45,3.95A5.24,5.24,0,0,0,181,81.53h17.4a5.24,5.24,0,0,0,3.86-1.45,5.33,5.33,0,0,0,1.45-3.95q0-1.11-.07-2.16h0Zm0,0" transform="translate(-175.64 -49.53)"/></g></svg>