<svg id="icons" xmlns="http://www.w3.org/2000/svg" viewBox="0 0 32 31.98"><defs><style>.cls-1{fill:#909090;}</style></defs><title>website</title><path class="cls-1" d="M189.65,49.54a16,16,0,1,0,16,16A16,16,0,0,0,189.65,49.54Zm-4.21,2.86A20,20,0,0,0,183,56.64h-3.82A13.52,13.52,0,0,1,185.44,52.4Zm-7.85,6.47h4.54a25.39,25.39,0,0,0-1,5.52h-5.25A14,14,0,0,1,177.59,58.87Zm0,13.27a13.7,13.7,0,0,1-1.67-5.52h5.25a22,22,0,0,0,1,5.52h-4.54Zm1.52,2.24H183a19.64,19.64,0,0,0,2.45,4.24A14.07,14.07,0,0,1,179.11,74.38Zm9.43,4.41a17.61,17.61,0,0,1-3.13-4.41h3.13V78.8Zm0-6.65h-4.06a19.68,19.68,0,0,1-1.07-5.52h5.13v5.52Zm0-7.76h-5.13a20.8,20.8,0,0,1,1.07-5.52h4.06v5.52Zm0-7.76h-3.13a16.89,16.89,0,0,1,3.13-4.41v4.41Zm13.16,2.24a13.38,13.38,0,0,1,1.67,5.52h-5.25a22,22,0,0,0-1-5.52h4.54Zm-1.55-2.24h-3.82a20,20,0,0,0-2.48-4.24A14.07,14.07,0,0,1,200.16,56.64Zm-9.4-4.41a16.22,16.22,0,0,1,3.13,4.41h-3.13V52.22Zm0,6.65h4.06a19.68,19.68,0,0,1,1.07,5.52h-5.13V58.87Zm0,7.76h5.13a20.8,20.8,0,0,1-1.07,5.52h-4.06V66.63Zm0,7.76h3.13a15.35,15.35,0,0,1-3.13,4.41V74.38Zm3.1,4.24a20,20,0,0,0,2.48-4.24h3.82A13.52,13.52,0,0,1,193.86,78.62Zm7.85-6.47h-4.54a22,22,0,0,0,1-5.52h5.25A13.85,13.85,0,0,1,201.71,72.15Z" transform="translate(-173.65 -49.54)"/></svg>