<svg id="icons" xmlns="http://www.w3.org/2000/svg" viewBox="0 0 32 29.9"><defs><style>.cls-1{fill:#909090;}</style></defs><title>calendar</title><g id="calendar"><rect class="cls-1" x="10.07" y="22.38" width="2.3" height="2.31" rx="0.64" ry="0.64"/><rect class="cls-1" x="5.24" y="22.38" width="2.3" height="2.31" rx="0.64" ry="0.64"/><rect class="cls-1" x="10.07" y="17.55" width="2.3" height="2.31" rx="0.64" ry="0.64"/><rect class="cls-1" x="19.74" y="12.71" width="2.3" height="2.31" rx="0.64" ry="0.64"/><path class="cls-1" d="M199.8,51.37a0.81,0.81,0,0,0-.83-0.8H196.3a0.81,0.81,0,0,0-.83.8v1.79h4.33V51.37Z" transform="translate(-173.65 -50.58)"/><rect class="cls-1" x="10.08" y="12.71" width="2.3" height="2.31" rx="0.64" ry="0.64"/><path class="cls-1" d="M183.78,51.37a0.81,0.81,0,0,0-.83-0.8h-2.67a0.81,0.81,0,0,0-.83.8v1.79h4.33V51.37Z" transform="translate(-173.65 -50.58)"/><rect class="cls-1" x="5.24" y="17.55" width="2.3" height="2.31" rx="0.64" ry="0.64"/><rect class="cls-1" x="24.57" y="12.71" width="2.3" height="2.31" rx="0.64" ry="0.64"/><path class="cls-1" d="M202.06,54.44H177.24a3.53,3.53,0,0,0-3.59,3.45V77a3.53,3.53,0,0,0,3.59,3.45h24.82A3.53,3.53,0,0,0,205.65,77V57.89A3.53,3.53,0,0,0,202.06,54.44ZM203.44,77a1.36,1.36,0,0,1-1.38,1.33H177.24A1.36,1.36,0,0,1,175.86,77V61.55a1.35,1.35,0,0,1,1.34-1.34h24.9a1.35,1.35,0,0,1,1.34,1.34V77Z" transform="translate(-173.65 -50.58)"/><rect class="cls-1" x="24.57" y="17.55" width="2.3" height="2.31" rx="0.64" ry="0.64"/><rect class="cls-1" x="14.77" y="17.55" width="2.3" height="2.31" rx="0.64" ry="0.64"/><rect class="cls-1" x="14.91" y="22.38" width="2.3" height="2.31" rx="0.64" ry="0.64"/><rect class="cls-1" x="19.03" y="16.65" width="3.84" height="3.84" rx="0.64" ry="0.64"/><rect class="cls-1" x="14.91" y="12.71" width="2.3" height="2.31" rx="0.64" ry="0.64"/></g></svg>