<svg id="icons" xmlns="http://www.w3.org/2000/svg" viewBox="0 0 32 29.9"><defs><style>.cls-1{fill:#909090;}</style></defs><title>date</title><g id="date"><path class="cls-1" d="M202.65,53.09h-2.82v2.06a1.59,1.59,0,0,1-1.58,1.58h-1.67A1.59,1.59,0,0,1,195,55.15V53.09H184.31v2.06a1.59,1.59,0,0,1-1.58,1.58h-1.67a1.59,1.59,0,0,1-1.58-1.58V53.09h-2.82a3,3,0,0,0-3,3V77.47a3,3,0,0,0,3,3h26a3,3,0,0,0,3-3V56.09A3,3,0,0,0,202.65,53.09ZM202.86,75a3,3,0,0,1-3,3h-20.4a3,3,0,0,1-3-3V62.8a3,3,0,0,1,3-3h20.4a3,3,0,0,1,3,3V75Z" transform="translate(-173.65 -50.57)"/><path class="cls-1" d="M181.9,55.7a1.59,1.59,0,0,0,1.58-1.58v-2a1.58,1.58,0,0,0-3.17,0v2A1.59,1.59,0,0,0,181.9,55.7Z" transform="translate(-173.65 -50.57)"/><path class="cls-1" d="M197.41,55.7A1.59,1.59,0,0,0,199,54.11v-2a1.58,1.58,0,0,0-3.17,0v2A1.59,1.59,0,0,0,197.41,55.7Z" transform="translate(-173.65 -50.57)"/></g></svg>