<svg id="icons" xmlns="http://www.w3.org/2000/svg" viewBox="0 0 31.72 32"><defs><style>.cls-1{fill:#909090;}</style></defs><title>fax</title><path class="cls-1" d="M203.22,65.47H176.08a2.29,2.29,0,0,0-2.29,2.29V79.24a2.29,2.29,0,0,0,2.29,2.29h27.14a2.29,2.29,0,0,0,2.29-2.29V67.76A2.29,2.29,0,0,0,203.22,65.47Zm-4.94,11.15h-4s1-3.3-5.43-3.42c-6.41.12-5.43,3.42-5.43,3.42h-4s-2.16-2.5.33-4.49c2.06-1.65,7.28-1.77,9.05-1.76s7,0.11,9.05,1.76C200.44,74.12,198.28,76.62,198.28,76.62Z" transform="translate(-173.79 -49.53)"/><path class="cls-1" d="M199.81,50.34a0.82,0.82,0,0,0-.82-0.82h-18.6a0.89,0.89,0,0,0-.89.89V63.58h20.31V50.34ZM195,59.52H184.3a1,1,0,1,1,0-1.94H195A1,1,0,1,1,195,59.52Zm0-4H184.3a1,1,0,1,1,0-1.94H195A1,1,0,1,1,195,55.53Z" transform="translate(-173.79 -49.53)"/></svg>