<svg id="icons" xmlns="http://www.w3.org/2000/svg" viewBox="0 0 32 31.98"><defs><style>.cls-1{fill:#909090;}</style></defs><title>feed_footer</title><path class="cls-1" d="M189.65,81.51a16,16,0,1,1,16-16A16,16,0,0,1,189.65,81.51Zm0-31.09a15.1,15.1,0,1,0,15.11,15.1A15.12,15.12,0,0,0,189.65,50.42Z" transform="translate(-173.65 -49.54)"/><path class="cls-1" d="M185.72,68a1.47,1.47,0,1,0,1,.43,1.42,1.42,0,0,0-1-.43h0Zm0,0" transform="translate(-173.65 -49.54)"/><path class="cls-1" d="M189.11,66.06a6.78,6.78,0,0,0-2-1.39,6.89,6.89,0,0,0-2.35-.62h0a0.5,0.5,0,0,0-.49.49v1a0.48,0.48,0,0,0,.45.48,4.91,4.91,0,0,1,4.42,4.42,0.47,0.47,0,0,0,.15.32,0.47,0.47,0,0,0,.33.13h1a0.45,0.45,0,0,0,.36-0.16,0.46,0.46,0,0,0,.13-0.37,6.87,6.87,0,0,0-.62-2.35,6.78,6.78,0,0,0-1.39-2h0Zm0,0" transform="translate(-173.65 -49.54)"/><path class="cls-1" d="M194.13,66.56a10.87,10.87,0,0,0-9.37-6.44h0a0.46,0.46,0,0,0-.34.14,0.45,0.45,0,0,0-.15.35v1.1a0.47,0.47,0,0,0,.13.33,0.46,0.46,0,0,0,.33.15,8.7,8.7,0,0,1,3.13.78,8.64,8.64,0,0,1,4.35,4.35,8.56,8.56,0,0,1,.77,3.13,0.46,0.46,0,0,0,.15.33,0.48,0.48,0,0,0,.34.13h1.1a0.45,0.45,0,0,0,.35-0.15,0.44,0.44,0,0,0,.14-0.36,10.63,10.63,0,0,0-.92-3.85h0Zm0,0" transform="translate(-173.65 -49.54)"/></svg>