<svg id="icons" xmlns="http://www.w3.org/2000/svg" viewBox="0 0 25.26 32"><defs><style>.cls-1{fill:#909090;}</style></defs><title>note</title><g id="note"><path class="cls-1" d="M198.32,73.77H188.06a0.94,0.94,0,0,0,0,1.88h10.27A0.94,0.94,0,0,0,198.32,73.77Z" transform="translate(-177.02 -49.53)"/><path class="cls-1" d="M187,55.14h5.17a1.07,1.07,0,0,0,1-1v-2a1.18,1.18,0,0,0-1-1.1H191.6a2.11,2.11,0,0,0-4,0H187a1,1,0,0,0-.72,1.1v2A0.85,0.85,0,0,0,187,55.14Z" transform="translate(-177.02 -49.53)"/><path class="cls-1" d="M198.32,69H188.06a0.88,0.88,0,0,0,0,1.75h10.27A0.88,0.88,0,0,0,198.32,69Z" transform="translate(-177.02 -49.53)"/><path class="cls-1" d="M198.32,59.39H188.06a1.09,1.09,0,0,0,0,2.13h10.27A1.09,1.09,0,0,0,198.32,59.39Z" transform="translate(-177.02 -49.53)"/><path class="cls-1" d="M198.32,64.39H188.06a0.81,0.81,0,1,0,0,1.63h10.27A0.81,0.81,0,1,0,198.32,64.39Z" transform="translate(-177.02 -49.53)"/><circle class="cls-1" cx="5.83" cy="15.8" r="1.71"/><circle class="cls-1" cx="5.83" cy="11.08" r="1.71"/><path class="cls-1" d="M201.59,53h-7.44v1.75h5.64a0.86,0.86,0,0,1,1,.68l0,23.89a1,1,0,0,1-.89.94H179.54a0.66,0.66,0,0,1-.77-0.69V55.47a0.67,0.67,0,0,1,.77-0.71H185V53h-7a1,1,0,0,0-1,.88v26.8a1,1,0,0,0,1,.83h23.58a0.71,0.71,0,0,0,.69-0.83V53.89A0.75,0.75,0,0,0,201.59,53Z" transform="translate(-177.02 -49.53)"/><circle class="cls-1" cx="5.83" cy="20.51" r="1.71"/><circle class="cls-1" cx="5.83" cy="25.23" r="1.71"/></g></svg>