<svg id="icons" xmlns="http://www.w3.org/2000/svg" viewBox="0 0 30.53 32"><defs><style>.cls-1{fill:#909090;}</style></defs><title>people</title><g id="people"><circle class="cls-1" cx="25.44" cy="8.08" r="2.85"/><circle class="cls-1" cx="5.09" cy="8.08" r="2.85"/><circle class="cls-1" cx="15.31" cy="3.47" r="3.47"/><path class="cls-1" d="M182.53,61.81a4.3,4.3,0,0,0-3-1.11h-0.14a4.78,4.78,0,0,0-4.48,2.93l-0.56,7a0.52,0.52,0,0,0,.18.43,0.85,0.85,0,0,0,.51.21h0.08a0.69,0.69,0,0,0,.71-0.57l0.37-4.37h0.38V80.23c0,0.49.1,0.67,0.39,0.67h2.25V73a0.5,0.5,0,0,1,1,0V80.9H182c0.29,0,.39-0.18.39-0.67V69.75S182,69.53,182.14,68A56,56,0,0,0,182.53,61.81Z" transform="translate(-174.39 -49.53)"/><path class="cls-1" d="M204.36,63.64a4.78,4.78,0,0,0-4.48-2.93h-0.14a4.3,4.3,0,0,0-3,1.11,56,56,0,0,0,.39,6.18c0.15,1.53-.24,1.75-0.24,1.75V80.23c0,0.49.1,0.67,0.39,0.67h2.12V73a0.5,0.5,0,0,1,1,0V80.9h1.87a0.62,0.62,0,0,0,.63-0.67V66.35h0.13l0.37,4.37a0.68,0.68,0,0,0,.71.55h0.08a0.85,0.85,0,0,0,.51-0.21,0.51,0.51,0,0,0,.18-0.42Z" transform="translate(-174.39 -49.53)"/><path class="cls-1" d="M189.76,56.77h-0.17a5.82,5.82,0,0,0-5.45,3.57l-0.68,8.55a0.64,0.64,0,0,0,.22.52,1,1,0,0,0,.62.26h0.09a0.93,0.93,0,0,0,.87-0.79l0.45-5.41h0.44V80.55c0,0.6.14,1,.49,1H189V71.69a0.7,0.7,0,0,1,1.38,0v9.83h2.31c0.35,0,.58-0.38.58-1V63.47h0.36l0.45,5.41a0.86,0.86,0,0,0,.87.71s0.06,0,.09,0a1,1,0,0,0,.62-0.24,0.6,0.6,0,0,0,.22-0.5l-0.68-8.55A5.82,5.82,0,0,0,189.76,56.77Z" transform="translate(-174.39 -49.53)"/></g></svg>