<svg id="icons" xmlns="http://www.w3.org/2000/svg" viewBox="0 0 32 31.98"><defs><style>.cls-1{fill:#909090;}</style></defs><title>twitter_footer</title><path class="cls-1" d="M195.7,61.78a5,5,0,0,1-1.43.38,2.41,2.41,0,0,0,1.09-1.36,4.87,4.87,0,0,1-1.57.6,2.48,2.48,0,0,0-4.29,1.69,2.75,2.75,0,0,0,.06.57,6.91,6.91,0,0,1-2.85-.76,7,7,0,0,1-2.26-1.83,2.48,2.48,0,0,0,0,2.43,2.48,2.48,0,0,0,.81.88,2.46,2.46,0,0,1-1.12-.31v0a2.39,2.39,0,0,0,.56,1.58,2.44,2.44,0,0,0,1.42.85,2.55,2.55,0,0,1-.65.08,3.18,3.18,0,0,1-.47,0,2.48,2.48,0,0,0,2.32,1.72,4.85,4.85,0,0,1-3.08,1.06,5.25,5.25,0,0,1-.6,0,6.89,6.89,0,0,0,3.81,1.11,7.25,7.25,0,0,0,2.48-.42,6.3,6.3,0,0,0,2-1.12,7.5,7.5,0,0,0,1.42-1.61,7.18,7.18,0,0,0,.89-1.91,7,7,0,0,0,.29-2c0-.14,0-0.25,0-0.32a5.19,5.19,0,0,0,1.24-1.28h0Zm0,0" transform="translate(-173.65 -49.54)"/><path class="cls-1" d="M189.65,81.51a16,16,0,1,1,16-16A16,16,0,0,1,189.65,81.51Zm0-31.09a15.1,15.1,0,1,0,15.11,15.1A15.12,15.12,0,0,0,189.65,50.42Z" transform="translate(-173.65 -49.54)"/></svg>